<?xml version="1.0" encoding="UTF-8" standalone="no"?>
<svg
   xmlns:dc="http://purl.org/dc/elements/1.1/"
   xmlns:cc="http://creativecommons.org/ns#"
   xmlns:rdf="http://www.w3.org/1999/02/22-rdf-syntax-ns#"
   xmlns:svg="http://www.w3.org/2000/svg"
   xmlns="http://www.w3.org/2000/svg"
   xmlns:sodipodi="http://sodipodi.sourceforge.net/DTD/sodipodi-0.dtd"
   xmlns:inkscape="http://www.inkscape.org/namespaces/inkscape"
   width="80.433327mm"
   height="39.214001mm"
   viewBox="0 0 80.433325 39.213999"
   version="1.1"
   id="svg8"
   inkscape:version="1.0.1 (0767f8302a, 2020-10-17)"
   sodipodi:docname="system-outline.svg">
  <defs
     id="defs2">
    <marker
       style="overflow:visible"
       id="marker99073"
       refX="0"
       refY="0"
       orient="auto"
       inkscape:stockid="Arrow1Lstart"
       inkscape:isstock="true">
      <path
         transform="matrix(0.3,0,0,0.3,1.5,0)"
         style="fill:#000000;fill-opacity:1;fill-rule:evenodd;stroke:#000000;stroke-width:1pt;stroke-opacity:1"
         d="M 0,0 5,-5 -10.5,0 5,5 Z"
         id="path99071" />
    </marker>
    <marker
       style="overflow:visible"
       id="marker99043"
       refX="0"
       refY="0"
       orient="auto"
       inkscape:stockid="Arrow1Lend"
       inkscape:isstock="true">
      <path
         transform="matrix(-0.3,0,0,-0.3,-1.5,0)"
         style="fill:#000000;fill-opacity:1;fill-rule:evenodd;stroke:#000000;stroke-width:1pt;stroke-opacity:1"
         d="M 0,0 5,-5 -10.5,0 5,5 Z"
         id="path99041" />
    </marker>
    <marker
       style="overflow:visible"
       id="marker98425"
       refX="0"
       refY="0"
       orient="auto"
       inkscape:stockid="Arrow1Lend"
       inkscape:isstock="true">
      <path
         transform="matrix(-0.3,0,0,-0.3,-1.5,0)"
         style="fill:#000000;fill-opacity:1;fill-rule:evenodd;stroke:#000000;stroke-width:1pt;stroke-opacity:1"
         d="M 0,0 5,-5 -10.5,0 5,5 Z"
         id="path98423" />
    </marker>
    <marker
       style="overflow:visible"
       id="Arrow1Lend"
       refX="0"
       refY="0"
       orient="auto"
       inkscape:stockid="Arrow1Lend"
       inkscape:isstock="true"
       inkscape:collect="always">
      <path
         transform="matrix(-0.3,0,0,-0.3,-1.5,0)"
         style="fill:#000000;fill-opacity:1;fill-rule:evenodd;stroke:#000000;stroke-width:1pt;stroke-opacity:1"
         d="M 0,0 5,-5 -10.5,0 5,5 Z"
         id="path97415" />
    </marker>
    <rect
       x="63.5"
       y="274.77499"
       width="43.612911"
       height="8.2153711"
       id="rect97126" />
    <rect
       x="48.811077"
       y="246.2"
       width="36.236919"
       height="19.057095"
       id="rect97120" />
    <inkscape:path-effect
       effect="simplify"
       id="path-effect8488"
       is_visible="true"
       steps="1"
       threshold="0.00961538"
       smooth_angles="360"
       helper_size="0"
       simplify_individual_paths="false"
       simplify_just_coalesce="false"
       simplifyindividualpaths="false"
       simplifyJustCoalesce="false"
       lpeversion="0" />
    <symbol
       id="server">
      <title
         id="server-title">Server</title>
      <path
         d="M 127,42.333333 H 8.4666667 C 3.7906854,42.333333 0,38.542648 0,33.866667 V 16.933333 C 0,12.257352 3.7906854,8.4666667 8.4666667,8.4666667 H 127 c 4.67598,0 8.46667,3.7906853 8.46667,8.4666663 v 16.933334 c 0,4.675981 -3.79069,8.466666 -8.46667,8.466666 z M 114.3,19.05 c -3.50705,0 -6.35,2.842948 -6.35,6.35 0,3.507052 2.84295,6.35 6.35,6.35 3.50705,0 6.35,-2.842948 6.35,-6.35 0,-3.507052 -2.84295,-6.35 -6.35,-6.35 z m -16.933333,0 c -3.507052,0 -6.35,2.842948 -6.35,6.35 0,3.507052 2.842948,6.35 6.35,6.35 3.507053,0 6.350003,-2.842948 6.350003,-6.35 0,-3.507052 -2.84295,-6.35 -6.350003,-6.35 z M 127,84.666667 H 8.4666667 C 3.7906854,84.666667 0,80.875981 0,76.2 V 59.266667 C 0,54.590685 3.7906854,50.8 8.4666667,50.8 H 127 c 4.67598,0 8.46667,3.790685 8.46667,8.466667 V 76.2 c 0,4.675981 -3.79069,8.466667 -8.46667,8.466667 z M 114.3,61.383333 c -3.50705,0 -6.35,2.842948 -6.35,6.35 0,3.507052 2.84295,6.35 6.35,6.35 3.50705,0 6.35,-2.842948 6.35,-6.35 0,-3.507052 -2.84295,-6.35 -6.35,-6.35 z m -16.933333,0 c -3.507052,0 -6.35,2.842948 -6.35,6.35 0,3.507052 2.842948,6.35 6.35,6.35 3.507053,0 6.350003,-2.842948 6.350003,-6.35 0,-3.507052 -2.84295,-6.35 -6.350003,-6.35 z M 127,127 H 8.4666667 C 3.7906854,127 0,123.20931 0,118.53333 V 101.6 C 0,96.924019 3.7906854,93.133333 8.4666667,93.133333 H 127 c 4.67598,0 8.46667,3.790686 8.46667,8.466667 v 16.93333 C 135.46667,123.20931 131.67598,127 127,127 Z m -12.7,-23.28333 c -3.50705,0 -6.35,2.84294 -6.35,6.35 0,3.50705 2.84295,6.35 6.35,6.35 3.50705,0 6.35,-2.84295 6.35,-6.35 0,-3.50706 -2.84295,-6.35 -6.35,-6.35 z m -16.933333,0 c -3.507052,0 -6.35,2.84294 -6.35,6.35 0,3.50705 2.842948,6.35 6.35,6.35 3.507053,0 6.350003,-2.84295 6.350003,-6.35 0,-3.50706 -2.84295,-6.35 -6.350003,-6.35 z"
         id="path70152"
         style="stroke-width:1" />
    </symbol>
    <symbol
       id="docker">
      <title
         id="docker-title">Docker</title>
      <path
         d="M 92.577708,62.521042 H 75.08875 v -15.71625 h 17.488958 z m 0,-54.0543753 H 75.08875 V 24.526875 H 92.577708 Z M 113.26812,46.778333 H 95.779167 v 15.71625 H 113.26812 Z M 71.91375,27.701875 H 54.424792 V 43.603333 H 71.91375 Z m 20.663958,0 H 75.08875 v 15.901458 h 17.488958 z m 73.236662,26.458333 c -3.81,-2.566458 -12.59416,-3.4925 -19.34104,-2.2225 -0.87312,-6.35 -4.41854,-11.879791 -10.87437,-16.853958 l -3.70417,-2.460625 -2.46062,3.704167 c -4.86834,7.355416 -6.19125,19.473333 -0.97896,27.46375 -2.30188,1.243541 -6.82625,2.936875 -12.80584,2.831041 H 0.635 c -2.301875,13.440834 1.5345833,30.903334 11.641667,42.888957 9.816041,11.61521 24.526875,17.51542 43.762083,17.51542 41.645417,0 72.46937,-19.18229 86.88917,-54.027918 5.66208,0.105833 17.88583,0.02646 24.15645,-11.959167 0.39688,-0.661458 1.74625,-3.4925 2.24896,-4.524375 z M 30.585833,46.778333 h -17.4625 v 15.71625 h 17.488959 v -15.71625 z m 20.663959,0 H 33.760833 v 15.71625 h 17.488959 z m 20.663958,0 H 54.424792 v 15.71625 H 71.91375 Z M 51.249792,27.701875 H 33.760833 v 15.901458 h 17.488959 z"
         id="path67322"
         style="stroke-width:1" />
    </symbol>
    <clipPath
       id="clip0">
      <rect
         width="453"
         height="175"
         fill="#ffffff"
         id="rect28"
         x="0"
         y="0" />
    </clipPath>
    <symbol
       id="g96457"
       style="fill:none;stroke-width:0.337441">
      <g
         id="g96457_transform"
         transform="matrix(0.78468074,0,0,0.78349486,42.418772,207.20625)">
        <path
           d="M 4.18587,172.44 86.3959,88.1685 c 0.515,-0.5279 0.6137,-1.3441 0.1842,-1.9436 C 81.5792,79.2442 72.3564,78.0343 68.9375,73.3445 58.8101,59.4522 56.2405,51.5891 51.8887,52.0768 c -0.304,0.0341 -0.575,0.1977 -0.7886,0.4166 L 21.4015,82.9367 C 4.31645,100.45 1.86636,139.01 1.41703,171.298 c -0.0203,1.459 1.74987,2.186 2.76884,1.142 z"
           fill="#017cee"
           id="path2"
           style="fill:#000000;fill-opacity:1;stroke:#000000;stroke-width:0.337441;stroke-opacity:1" />
        <path
           d="M 172.44,170.357 88.1685,88.1466 c -0.5279,-0.515 -1.3441,-0.6138 -1.9436,-0.1843 -6.9806,5.001 -8.1905,14.2237 -12.8804,17.6427 -13.8923,10.127 -21.7554,12.697 -21.2677,17.049 0.0341,0.304 0.1977,0.575 0.4167,0.788 l 30.4432,29.699 c 17.5133,17.085 56.0733,19.535 88.3613,19.984 1.459,0.021 2.186,-1.749 1.142,-2.768 z"
           fill="#00ad46"
           id="path4"
           style="fill:#000000;fill-opacity:1;stroke-width:0.337441" />
        <path
           fill-rule="evenodd"
           clip-rule="evenodd"
           d="M 82.9363,153.141 C 73.3696,143.809 68.9312,125.346 87.2715,87.2725 57.4647,100.593 47.0194,118.103 52.1578,123.116 Z"
           fill="#04d659"
           id="path6"
           style="fill:#ffffff;fill-opacity:1;stroke:#000000;stroke-width:0.113866;stroke-opacity:1" />
        <path
           d="M 170.355,2.10462 88.1451,86.376 c -0.515,0.5279 -0.6137,1.344 -0.1842,1.9435 5.0009,6.9807 14.2241,8.1906 17.6421,12.8805 10.128,13.892 12.698,21.755 17.049,21.268 0.304,-0.034 0.575,-0.198 0.789,-0.417 l 29.698,-30.4433 c 17.086,-17.5135 19.536,-56.0731 19.985,-88.36143 0.02,-1.45908 -1.75,-2.18617 -2.769,-1.14165 z"
           fill="#00c7d4"
           id="path8"
           style="fill:#000000;fill-opacity:1;stroke:#000000;stroke-width:0.337441;stroke-opacity:1" />
        <path
           fill-rule="evenodd"
           clip-rule="evenodd"
           d="m 153.14,91.6077 c -9.333,9.5663 -27.796,14.0053 -65.8695,-4.3352 13.3205,29.8065 30.8305,40.2525 35.8435,35.1135 z"
           fill="#11e1ee"
           id="path10"
           style="fill:#ffffff;fill-opacity:1;stroke:#000000;stroke-width:0.113866;stroke-opacity:1" />
        <path
           d="M 2.10315,4.18733 86.3745,86.3973 c 0.5279,0.515 1.344,0.6138 1.9436,0.1843 6.9806,-5.0009 8.1905,-14.2237 12.8799,-17.6426 13.893,-10.1274 21.756,-12.697 21.268,-17.0488 -0.034,-0.304 -0.198,-0.575 -0.416,-0.7886 L 91.6063,21.403 C 74.0928,4.31792 35.5331,1.86783 3.2448,1.4185 1.78572,1.39819 1.05863,3.16836 2.10315,4.18733 Z"
           fill="#e43921"
           id="path12"
           style="fill:#000000;fill-opacity:1;stroke-width:0.337441" />
        <path
           fill-rule="evenodd"
           clip-rule="evenodd"
           d="M 91.6057,21.4025 C 101.172,30.7352 105.611,49.1977 87.2705,87.2714 117.077,73.9511 127.523,56.4408 122.384,51.4281 Z"
           fill="#ff7557"
           id="path14"
           style="fill:#ffffff;fill-opacity:1;stroke:#000000;stroke-width:0.113866;stroke-opacity:1" />
        <path
           fill-rule="evenodd"
           clip-rule="evenodd"
           d="M 21.4025,82.9368 C 30.7352,73.3701 49.1977,68.9317 87.2714,87.272 73.951,57.4652 56.4408,47.0199 51.4281,52.1583 Z"
           fill="#0cb6ff"
           id="path16"
           style="fill:#ffffff;fill-opacity:1;stroke:#000000;stroke-width:0.113866;stroke-opacity:1" />
        <circle
           cx="86.196754"
           cy="88.334557"
           r="3.67606"
           transform="rotate(-0.709386)"
           fill="#4a4848"
           id="circle18"
           style="fill:#000000;fill-opacity:1;stroke-width:0.337441" />
      </g>
    </symbol>
    <symbol
       id="g96884"
       style="stroke-width:1.1396">
      <g
         id="g96884_transform"
         transform="matrix(0.31041564,0,0,0.30871187,-19.078133,185.68946)">
        <g
           id="orginal"
           style="clip-rule:nonzero;fill-rule:nonzero;stroke:#000000;stroke-width:1.1396;stroke-miterlimit:4" />
        <g
           id="Layer_x0020_3"
           style="clip-rule:nonzero;fill:none;fill-rule:nonzero;stroke:#ffffff;stroke-width:14.2052;stroke-linecap:round;stroke-linejoin:round;stroke-miterlimit:4">
          <path
             style="fill:#000000;stroke:#000000;stroke-width:42.6157;stroke-linecap:butt;stroke-linejoin:miter"
             d="m 323.205,324.227 c 2.833,-23.601 1.984,-27.062 19.563,-23.239 l 4.463,0.392 c 13.517,0.615 31.199,-2.174 41.587,-7 22.362,-10.376 35.622,-27.7 13.572,-23.148 -50.297,10.376 -53.755,-6.655 -53.755,-6.655 C 401.746,185.774 423.948,85.741 404.784,61.255 352.514,-5.534 262.036,26.049 260.522,26.869 l -0.482,0.089 c -9.938,-2.062 -21.06,-3.294 -33.554,-3.496 -22.761,-0.374 -40.032,5.967 -53.133,15.904 0,0 -161.408,-66.498 -153.899,83.628 1.597,31.936 45.777,241.655 98.47,178.31 19.259,-23.163 37.871,-42.748 37.871,-42.748 9.242,6.14 20.307,9.272 31.912,8.147 l 0.897,-0.765 c -0.281,2.876 -0.157,5.689 0.359,9.019 -13.572,15.167 -9.584,17.83 -36.723,23.416 -27.457,5.659 -11.326,15.734 -0.797,18.367 12.768,3.193 42.305,7.716 62.268,-20.224 l -0.795,3.188 c 5.325,4.26 4.965,30.619 5.72,49.452 0.756,18.834 2.017,36.409 5.856,46.771 3.839,10.36 8.369,37.05 44.036,29.406 29.809,-6.388 52.6,-15.582 54.677,-101.107"
             id="path3" />
          <path
             style="fill:#000000;fill-opacity:1;stroke:none;stroke-width:14.2052"
             d="m 402.395,271.23 c -50.302,10.376 -53.76,-6.655 -53.76,-6.655 53.111,-78.808 75.313,-178.843 56.153,-203.326 -52.27,-66.785 -142.752,-35.2 -144.262,-34.38 l -0.486,0.087 c -9.938,-2.063 -21.06,-3.292 -33.56,-3.496 -22.761,-0.373 -40.026,5.967 -53.127,15.902 0,0 -161.411,-66.495 -153.904,83.63 1.597,31.938 45.776,241.657 98.471,178.312 19.26,-23.163 37.869,-42.748 37.869,-42.748 9.243,6.14 20.308,9.272 31.908,8.147 l 0.901,-0.765 c -0.28,2.876 -0.152,5.689 0.361,9.019 -13.575,15.167 -9.586,17.83 -36.723,23.416 -27.459,5.659 -11.328,15.734 -0.796,18.367 12.768,3.193 42.307,7.716 62.266,-20.224 l -0.796,3.188 c 5.319,4.26 9.054,27.711 8.428,48.969 -0.626,21.259 -1.044,35.854 3.147,47.254 4.191,11.4 8.368,37.05 44.042,29.406 29.809,-6.388 45.256,-22.942 47.405,-50.555 1.525,-19.631 4.976,-16.729 5.194,-34.28 l 2.768,-8.309 c 3.192,-26.611 0.507,-35.196 18.872,-31.203 l 4.463,0.392 c 13.517,0.615 31.208,-2.174 41.591,-7 22.358,-10.376 35.618,-27.7 13.573,-23.148 z"
             id="path5" />
          <path
             d="m 215.866,286.484 c -1.385,49.516 0.348,99.377 5.193,111.495 4.848,12.118 15.223,35.688 50.9,28.045 29.806,-6.39 40.651,-18.756 45.357,-46.051 3.466,-20.082 10.148,-75.854 11.005,-87.281"
             id="path7"
             style="stroke-width:14.2052" />
          <path
             d="m 173.104,38.256 c 0,0 -161.521,-66.016 -154.012,84.109 1.597,31.938 45.779,241.664 98.473,178.316 19.256,-23.166 36.671,-41.335 36.671,-41.335"
             id="path9"
             style="stroke-width:14.2052" />
          <path
             d="m 260.349,26.207 c -5.591,1.753 89.848,-34.889 144.087,34.417 19.159,24.484 -3.043,124.519 -56.153,203.329"
             id="path11"
             style="stroke-width:14.2052" />
          <path
             style="stroke-width:14.2052;stroke-linejoin:bevel"
             d="m 348.282,263.953 c 0,0 3.461,17.036 53.764,6.653 22.04,-4.552 8.776,12.774 -13.577,23.155 -18.345,8.514 -59.474,10.696 -60.146,-1.069 -1.729,-30.355 21.647,-21.133 19.96,-28.739 -1.525,-6.85 -11.979,-13.573 -18.894,-30.338 -6.037,-14.633 -82.796,-126.849 21.287,-110.183 3.813,-0.789 -27.146,-99.002 -124.553,-100.599 -97.385,-1.597 -94.19,119.762 -94.19,119.762"
             id="path13" />
          <path
             d="m 188.604,274.334 c -13.577,15.166 -9.584,17.829 -36.723,23.417 -27.459,5.66 -11.326,15.733 -0.797,18.365 12.768,3.195 42.307,7.718 62.266,-20.229 6.078,-8.509 -0.036,-22.086 -8.385,-25.547 -4.034,-1.671 -9.428,-3.765 -16.361,3.994 z"
             id="path15"
             style="stroke-width:14.2052" />
          <path
             d="m 187.715,274.069 c -1.368,-8.917 2.93,-19.528 7.536,-31.942 6.922,-18.626 22.893,-37.255 10.117,-96.339 -9.523,-44.029 -73.396,-9.163 -73.436,-3.193 -0.039,5.968 2.889,30.26 -1.067,58.548 -5.162,36.913 23.488,68.132 56.479,64.938"
             id="path17"
             style="stroke-width:14.2052" />
          <path
             style="fill:#ffffff;stroke-width:4.73504;stroke-linecap:butt;stroke-linejoin:miter"
             d="m 172.517,141.7 c -0.288,2.039 3.733,7.48 8.976,8.207 5.234,0.73 9.714,-3.522 9.998,-5.559 0.284,-2.039 -3.732,-4.285 -8.977,-5.015 -5.237,-0.731 -9.719,0.333 -9.996,2.367 z"
             id="path19" />
          <path
             style="fill:#ffffff;stroke-width:2.36752;stroke-linecap:butt;stroke-linejoin:miter"
             d="m 331.941,137.543 c 0.284,2.039 -3.732,7.48 -8.976,8.207 -5.238,0.73 -9.718,-3.522 -10.005,-5.559 -0.277,-2.039 3.74,-4.285 8.979,-5.015 5.239,-0.73 9.718,0.333 10.002,2.368 z"
             id="path21" />
          <path
             d="m 350.676,123.432 c 0.863,15.994 -3.445,26.888 -3.988,43.914 -0.804,24.748 11.799,53.074 -7.191,81.435"
             id="path23"
             style="stroke-width:14.2052" />
          <path
             style="stroke-width:3.4188"
             d="M 0,60.232"
             id="path25" />
        </g>
      </g>
    </symbol>
    <symbol
       id="folder">
      <title
         id="folder-title">Folder</title>
      <path
         d="M 122.76667,33.866667 H 71.966667 L 55.033333,16.933333 H 12.7 c -7.0141042,0 -12.7,5.685896 -12.7,12.7 v 76.199997 c 0,7.01411 5.6858958,12.7 12.7,12.7 h 110.06667 c 7.0141,0 12.7,-5.68589 12.7,-12.7 V 46.566667 c 0,-7.014105 -5.6859,-12.7 -12.7,-12.7 z"
         id="path69520"
         style="stroke-width:1" />
    </symbol>
    <marker
       style="overflow:visible"
       id="Arrow1Lend-5"
       refX="0"
       refY="0"
       orient="auto"
       inkscape:stockid="Arrow1Lend"
       inkscape:isstock="true">
      <path
         transform="matrix(-0.3,0,0,-0.3,-1.5,0)"
         style="fill:#000000;fill-opacity:1;fill-rule:evenodd;stroke:#000000;stroke-width:1pt;stroke-opacity:1"
         d="M 0,0 5,-5 -10.5,0 5,5 Z"
         id="path97415-3" />
    </marker>
    <marker
       style="overflow:visible"
       id="Arrow1Lend-4"
       refX="0"
       refY="0"
       orient="auto"
       inkscape:stockid="Arrow1Lend"
       inkscape:isstock="true">
      <path
         transform="matrix(-0.3,0,0,-0.3,-1.5,0)"
         style="fill:#000000;fill-opacity:1;fill-rule:evenodd;stroke:#000000;stroke-width:1pt;stroke-opacity:1"
         d="M 0,0 5,-5 -10.5,0 5,5 Z"
         id="path97415-1" />
    </marker>
    <marker
       style="overflow:visible"
       id="Arrow1Lend-4-5"
       refX="0"
       refY="0"
       orient="auto"
       inkscape:stockid="Arrow1Lend"
       inkscape:isstock="true">
      <path
         transform="matrix(-0.3,0,0,-0.3,-1.5,0)"
         style="fill:#000000;fill-opacity:1;fill-rule:evenodd;stroke:#000000;stroke-width:1pt;stroke-opacity:1"
         d="M 0,0 5,-5 -10.5,0 5,5 Z"
         id="path97415-1-4" />
    </marker>
    <marker
       style="overflow:visible"
       id="marker99073-8"
       refX="0"
       refY="0"
       orient="auto"
       inkscape:stockid="Arrow1Lstart"
       inkscape:isstock="true">
      <path
         transform="matrix(0.3,0,0,0.3,1.5,0)"
         style="fill:#000000;fill-opacity:1;fill-rule:evenodd;stroke:#000000;stroke-width:1pt;stroke-opacity:1"
         d="M 0,0 5,-5 -10.5,0 5,5 Z"
         id="path99071-3" />
    </marker>
    <marker
       style="overflow:visible"
       id="marker99043-8"
       refX="0"
       refY="0"
       orient="auto"
       inkscape:stockid="Arrow1Lend"
       inkscape:isstock="true">
      <path
         transform="matrix(-0.3,0,0,-0.3,-1.5,0)"
         style="fill:#000000;fill-opacity:1;fill-rule:evenodd;stroke:#000000;stroke-width:1pt;stroke-opacity:1"
         d="M 0,0 5,-5 -10.5,0 5,5 Z"
         id="path99041-5" />
    </marker>
    <symbol
       id="icon-web-browser-symbolic">
      <title
         id="title72138">web-browser-symbolic</title>
      <path
         d="M 4.2325396,2.5646062 V 8.0562979 L 2.9924375,6.8458292 2.2838833,8.2925708 C 2.1103167,8.6838896 1.2080875,8.3693 1.4644687,7.8459542 L 2.1656146,6.3439146 H 0.60086875 Z"
         id="path72140"
         style="stroke-width:1" />
      <path
         d="M 3.7861875,0.56303333 C 1.7618604,0.80645 0.30559375,2.6569458 0.56223958,4.6796854 0.63156042,5.2271083 0.71755,5.4107292 0.71755,5.4107292 L 1.6036396,4.5473937 C 1.4284854,3.0905979 2.4614187,1.7795875 3.9182146,1.6046979 5.3750104,1.4298083 6.6860208,2.4624771 6.8609104,3.9192729 7.0268042,5.299075 6.1248396,6.5778062 4.7611771,6.8455646 l 0.016404,1.0580687 c 0,0 0.2754313,-0.056092 0.3299355,-0.069321 C 6.9146208,7.3932521 8.1264125,5.6507062 7.9023104,3.7869812 7.6588937,1.7626542 5.81025,0.31961667 3.7856583,0.56303333 Z"
         id="path72142"
         style="stroke-width:1" />
      <path
         opacity="0.3"
         d="M 2.1759333,4.1354375 V 4.0266937 l -0.104775,0.00979 c 0.00873,-0.069321 0.017463,-0.1383771 0.026194,-0.2076979 h -0.061119 l -0.061119,0.07911 -0.061119,0.029633 L 1.8264187,3.8883167 1.8176875,3.7795729 1.83515,3.660775 1.9663833,3.5618208 h 0.104775 l 0.017463,-0.059531 0.1312334,0.029633 0.096308,0.1187979 0.017463,-0.1979083 0.1661583,-0.1383771 0.061119,-0.1484312 0.1225021,-0.049477 0.06985,-0.098954 0.157427,-0.029898 0.078846,-0.1185333 c -0.078581,0 -0.1574271,0 -0.2360083,0 l 0.1486958,-0.069321 h 0.104775 l 0.1486958,-0.049477 0.017463,-0.059267 -0.052388,-0.049477 -0.061119,-0.019844 0.017463,-0.059267 -0.043656,-0.0889 -0.1050396,0.039423 0.017462,-0.07911 -0.1225021,-0.069321 -0.096044,0.1680105 0.00873,0.059531 -0.096044,0.039687 L 2.5786292,2.7603979 2.5524354,2.6416 2.3862771,2.5722792 2.3600831,2.4833792 2.578629,2.3547917 2.674937,2.2658917 2.683667,2.1571479 2.631279,2.1275149 2.561429,2.1174609 2.517773,2.2262047 c 0,0 -0.073025,0.014288 -0.09181,0.01905 -0.2399771,0.2211916 -0.7252229,0.6985 -0.8379354,1.5999354 0.00423,0.020902 0.081756,0.1420812 0.081756,0.1420812 l 0.1836208,0.1087438 0.1836209,0.049477 z M 4.1343792,1.870075 3.9071021,1.7809104 3.6449,1.8105437 l -0.3235854,0.0889 -0.061119,0.059531 0.2010834,0.1383771 v 0.07911 l -0.078581,0.07911 0.1050396,0.2079625 0.06985,-0.039687 0.087577,-0.1383771 C 3.7801021,2.2436667 3.9012812,2.1963062 4.0296042,2.1370396 L 4.1346437,1.870075 Z M 5.4723771,2.05105 5.2739396,2.100527 5.1583167,2.183077 v 0.066146 l -0.1984375,0.1322917 0.049477,0.1817687 0.115623,-0.08255 0.066146,0.08255 0.08255,0.049477 0.049477,-0.1486958 -0.033073,-0.08255 0.033073,-0.049477 0.1156229,-0.099219 h 0.049477 l -0.049477,0.115623 v 0.099219 c 0.047096,-0.0127 0.084138,-0.026988 0.1322917,-0.033073 L 5.438775,2.5138063 v 0.066146 L 5.2734104,2.695575 5.1247146,2.6625021 v -0.08255 l -0.066146,0.033073 0.033073,0.08255 h -0.115623 l -0.066146,0.1156229 -0.08255,0.08255 -0.049477,0.016404 v 0.099219 l 0.016404,0.08255 h -0.016404 v 0.2809875 l 0.033073,-0.016404 0.049477,-0.115623 0.099219,-0.066146 0.016404,-0.049477 0.1486959,-0.033073 0.08255,0.099219 0.099219,0.049477 L 5.2570062,3.3401 5.3395562,3.3236958 5.3726292,3.2080729 5.2734104,3.09245 h 0.033073 l 0.115623,0.08255 0.016404,0.1156229 0.08255,0.1156229 0.033073,-0.1653646 0.049477,-0.016404 c 0.0508,0.052652 0.089429,0.1225021 0.1322917,0.1817687 H 5.8845979 L 5.9838167,3.4723917 5.851525,3.6046833 H 5.7192333 L 5.5374646,3.5552062 H 5.4382458 L 5.3721,3.6377562 5.1903313,3.4393187 5.0580396,3.4062458 l -0.1984375,0.033073 -0.08255,0.049477 v 1.2729104 l 0.016404,0.016404 0.1322916,-0.08255 0.049477,0.049477 h 0.1486958 l 0.066146,0.08255 -0.049477,0.1653646 0.099219,0.099219 V 5.2906083 L 5.3059542,5.4229 5.2564771,5.5551917 c -0.00476,0.08546 0,0.1624541 0,0.2479145 0.042069,0.1158875 0.075935,0.2304521 0.1156229,0.3471334 l 0.033073,0.1817687 v 0.099219 H 5.471319 L 5.5869417,6.3650812 H 5.7192333 L 5.9176708,6.1335708 5.9012667,6.0510208 6.0335583,5.9353979 5.9343396,5.8361792 6.0499625,5.7369604 6.1655854,5.6708146 6.2150625,5.6046687 6.1819896,5.4723771 V 5.1583167 L 6.2812083,4.9598792 6.3804271,4.8275875 6.5127188,4.5299312 v -0.08255 c -0.061648,0.00767 -0.1214438,0.012171 -0.1817688,0.016404 -0.0381,0.00265 -0.076465,0 -0.1156229,0 C 6.149975,4.3264667 6.0999688,4.194175 6.0499625,4.0505062 l -0.08255,-0.099219 -0.049477,-0.1653646 0.033073,-0.033073 0.115623,0.1322917 0.1322916,0.2976562 0.08255,0.08255 -0.033073,0.1156229 0.08255,0.08255 0.1322917,-0.1322916 0.1653646,-0.115623 0.08255,-0.099219 V 4.0007646 c -0.020638,-0.038629 -0.02884,-0.076994 -0.049477,-0.1156229 l -0.08255,0.099219 -0.066146,-0.08255 -0.099219,-0.066146 v -0.148696 l 0.1156229,0.115623 0.1156229,-0.016404 c 0.05371,0.048948 0.1016,0.1098021 0.1486958,0.1653646 l 0.08255,-0.099219 c 0,-0.09234 -0.1055687,-0.53975 -0.3307291,-0.9257771 C 6.3203667,2.5405292 5.9338104,2.1825479 5.9338104,2.1825479 L 5.9007375,2.232025 5.7851146,2.3476479 5.6528229,2.2153562 H 5.7851146 L 5.8512604,2.1492104 5.6033458,2.0997333 5.4710542,2.0502562 Z"
         id="path72144"
         style="stroke-width:1" />
    </symbol>
  </defs>
  <sodipodi:namedview
     id="base"
     pagecolor="#ffffff"
     bordercolor="#666666"
     borderopacity="1.0"
     inkscape:pageopacity="0.0"
     inkscape:pageshadow="2"
     inkscape:zoom="2.806033"
     inkscape:cx="130.341"
     inkscape:cy="122.00142"
     inkscape:document-units="mm"
     inkscape:current-layer="layer1"
     showgrid="true"
     units="mm"
     showguides="true"
     inkscape:window-width="1920"
     inkscape:window-height="1146"
     inkscape:window-x="0"
     inkscape:window-y="31"
     inkscape:window-maximized="1"
     objecttolerance="10"
     gridtolerance="5"
     inkscape:document-rotation="0">
    <inkscape:grid
       type="xygrid"
       id="grid4747"
       units="in"
       spacingx="3.175"
       spacingy="3.175"
       empspacing="4" />
  </sodipodi:namedview>
  <metadata
     id="metadata5">
    <rdf:RDF>
      <cc:Work
         rdf:about="">
        <dc:format>image/svg+xml</dc:format>
        <dc:type
           rdf:resource="http://purl.org/dc/dcmitype/StillImage" />
        <dc:title></dc:title>
      </cc:Work>
    </rdf:RDF>
  </metadata>
  <g
     inkscape:label="Layer 1"
     inkscape:groupmode="layer"
     id="layer1"
     transform="translate(0,-220.8)">
    <g
       id="use96336"
       style="fill:#000000;stroke:none;stroke-width:39.5752"
       transform="matrix(0.02334599,0,0,0.02734919,1,255.54044)">
      <title
         id="title271">Server</title>
      <path
         d="M 127,42.333333 H 8.4666667 C 3.7906854,42.333333 0,38.542648 0,33.866667 V 16.933333 C 0,12.257352 3.7906854,8.4666667 8.4666667,8.4666667 H 127 c 4.67598,0 8.46667,3.7906853 8.46667,8.4666663 v 16.933334 c 0,4.675981 -3.79069,8.466666 -8.46667,8.466666 z M 114.3,19.05 c -3.50705,0 -6.35,2.842948 -6.35,6.35 0,3.507052 2.84295,6.35 6.35,6.35 3.50705,0 6.35,-2.842948 6.35,-6.35 0,-3.507052 -2.84295,-6.35 -6.35,-6.35 z m -16.933333,0 c -3.507052,0 -6.35,2.842948 -6.35,6.35 0,3.507052 2.842948,6.35 6.35,6.35 3.507053,0 6.350003,-2.842948 6.350003,-6.35 0,-3.507052 -2.84295,-6.35 -6.350003,-6.35 z M 127,84.666667 H 8.4666667 C 3.7906854,84.666667 0,80.875981 0,76.2 V 59.266667 C 0,54.590685 3.7906854,50.8 8.4666667,50.8 H 127 c 4.67598,0 8.46667,3.790685 8.46667,8.466667 V 76.2 c 0,4.675981 -3.79069,8.466667 -8.46667,8.466667 z M 114.3,61.383333 c -3.50705,0 -6.35,2.842948 -6.35,6.35 0,3.507052 2.84295,6.35 6.35,6.35 3.50705,0 6.35,-2.842948 6.35,-6.35 0,-3.507052 -2.84295,-6.35 -6.35,-6.35 z m -16.933333,0 c -3.507052,0 -6.35,2.842948 -6.35,6.35 0,3.507052 2.842948,6.35 6.35,6.35 3.507053,0 6.350003,-2.842948 6.350003,-6.35 0,-3.507052 -2.84295,-6.35 -6.350003,-6.35 z M 127,127 H 8.4666667 C 3.7906854,127 0,123.20931 0,118.53333 V 101.6 C 0,96.924019 3.7906854,93.133333 8.4666667,93.133333 H 127 c 4.67598,0 8.46667,3.790686 8.46667,8.466667 v 16.93333 C 135.46667,123.20931 131.67598,127 127,127 Z m -12.7,-23.28333 c -3.50705,0 -6.35,2.84294 -6.35,6.35 0,3.50705 2.84295,6.35 6.35,6.35 3.50705,0 6.35,-2.84295 6.35,-6.35 0,-3.50706 -2.84295,-6.35 -6.35,-6.35 z m -16.933333,0 c -3.507052,0 -6.35,2.84294 -6.35,6.35 0,3.50705 2.842948,6.35 6.35,6.35 3.507053,0 6.350003,-2.84295 6.350003,-6.35 0,-3.50706 -2.84295,-6.35 -6.350003,-6.35 z"
         id="path273"
         style="stroke-width:1" />
    </g>
    <g
       id="g99221"
       transform="translate(-1.0749999,-13.207705)">
      <rect
         style="vector-effect:none;fill:none;fill-opacity:0.162996;stroke:#000000;stroke-width:0.2;stroke-linecap:butt;stroke-linejoin:miter;stroke-miterlimit:4;stroke-dasharray:none;stroke-dashoffset:0;stroke-opacity:1;paint-order:normal"
         id="rect96720"
         width="32.799999"
         height="9.8740015"
         x="3.175"
         y="255.20615" />
      <g
         id="g96988"
         transform="translate(-6.1649996,-12.41948)">
        <g
           id="use96701"
           style="stroke-width:44.9549"
           transform="matrix(0.0222222,0,0,0.02226696,37.025597,265.7874)">
          <g
             id="g261"
             transform="matrix(0.78468074,0,0,0.78349486,42.418772,207.20625)">
            <path
               d="M 4.18587,172.44 86.3959,88.1685 c 0.515,-0.5279 0.6137,-1.3441 0.1842,-1.9436 C 81.5792,79.2442 72.3564,78.0343 68.9375,73.3445 58.8101,59.4522 56.2405,51.5891 51.8887,52.0768 c -0.304,0.0341 -0.575,0.1977 -0.7886,0.4166 L 21.4015,82.9367 C 4.31645,100.45 1.86636,139.01 1.41703,171.298 c -0.0203,1.459 1.74987,2.186 2.76884,1.142 z"
               fill="#017cee"
               id="path243"
               style="fill:#000000;fill-opacity:1;stroke:#000000;stroke-width:0.337441;stroke-opacity:1" />
            <path
               d="M 172.44,170.357 88.1685,88.1466 c -0.5279,-0.515 -1.3441,-0.6138 -1.9436,-0.1843 -6.9806,5.001 -8.1905,14.2237 -12.8804,17.6427 -13.8923,10.127 -21.7554,12.697 -21.2677,17.049 0.0341,0.304 0.1977,0.575 0.4167,0.788 l 30.4432,29.699 c 17.5133,17.085 56.0733,19.535 88.3613,19.984 1.459,0.021 2.186,-1.749 1.142,-2.768 z"
               fill="#00ad46"
               id="path245"
               style="fill:#000000;fill-opacity:1;stroke-width:0.337441" />
            <path
               fill-rule="evenodd"
               clip-rule="evenodd"
               d="M 82.9363,153.141 C 73.3696,143.809 68.9312,125.346 87.2715,87.2725 57.4647,100.593 47.0194,118.103 52.1578,123.116 Z"
               fill="#04d659"
               id="path247"
               style="fill:#ffffff;fill-opacity:1;stroke:#000000;stroke-width:0.113866;stroke-opacity:1" />
            <path
               d="M 170.355,2.10462 88.1451,86.376 c -0.515,0.5279 -0.6137,1.344 -0.1842,1.9435 5.0009,6.9807 14.2241,8.1906 17.6421,12.8805 10.128,13.892 12.698,21.755 17.049,21.268 0.304,-0.034 0.575,-0.198 0.789,-0.417 l 29.698,-30.4433 c 17.086,-17.5135 19.536,-56.0731 19.985,-88.36143 0.02,-1.45908 -1.75,-2.18617 -2.769,-1.14165 z"
               fill="#00c7d4"
               id="path249"
               style="fill:#000000;fill-opacity:1;stroke:#000000;stroke-width:0.337441;stroke-opacity:1" />
            <path
               fill-rule="evenodd"
               clip-rule="evenodd"
               d="m 153.14,91.6077 c -9.333,9.5663 -27.796,14.0053 -65.8695,-4.3352 13.3205,29.8065 30.8305,40.2525 35.8435,35.1135 z"
               fill="#11e1ee"
               id="path251"
               style="fill:#ffffff;fill-opacity:1;stroke:#000000;stroke-width:0.113866;stroke-opacity:1" />
            <path
               d="M 2.10315,4.18733 86.3745,86.3973 c 0.5279,0.515 1.344,0.6138 1.9436,0.1843 6.9806,-5.0009 8.1905,-14.2237 12.8799,-17.6426 13.893,-10.1274 21.756,-12.697 21.268,-17.0488 -0.034,-0.304 -0.198,-0.575 -0.416,-0.7886 L 91.6063,21.403 C 74.0928,4.31792 35.5331,1.86783 3.2448,1.4185 1.78572,1.39819 1.05863,3.16836 2.10315,4.18733 Z"
               fill="#e43921"
               id="path253"
               style="fill:#000000;fill-opacity:1;stroke-width:0.337441" />
            <path
               fill-rule="evenodd"
               clip-rule="evenodd"
               d="M 91.6057,21.4025 C 101.172,30.7352 105.611,49.1977 87.2705,87.2714 117.077,73.9511 127.523,56.4408 122.384,51.4281 Z"
               fill="#ff7557"
               id="path255"
               style="fill:#ffffff;fill-opacity:1;stroke:#000000;stroke-width:0.113866;stroke-opacity:1" />
            <path
               fill-rule="evenodd"
               clip-rule="evenodd"
               d="M 21.4025,82.9368 C 30.7352,73.3701 49.1977,68.9317 87.2714,87.272 73.951,57.4652 56.4408,47.0199 51.4281,52.1583 Z"
               fill="#0cb6ff"
               id="path257"
               style="fill:#ffffff;fill-opacity:1;stroke:#000000;stroke-width:0.113866;stroke-opacity:1" />
            <circle
               cx="86.196754"
               cy="88.334557"
               r="3.67606"
               transform="rotate(-0.709386)"
               fill="#4a4848"
               id="circle259"
               style="fill:#000000;fill-opacity:1;stroke-width:0.337441" />
          </g>
        </g>
        <g
           id="use96366-7"
           style="fill:#000000;stroke:none;stroke-width:48.3842"
           transform="matrix(0.02066788,0,0,0.02066788,37.740238,273.97401)">
          <title
             id="title265">Docker</title>
          <path
             d="M 92.577708,62.521042 H 75.08875 v -15.71625 h 17.488958 z m 0,-54.0543753 H 75.08875 V 24.526875 H 92.577708 Z M 113.26812,46.778333 H 95.779167 v 15.71625 H 113.26812 Z M 71.91375,27.701875 H 54.424792 V 43.603333 H 71.91375 Z m 20.663958,0 H 75.08875 v 15.901458 h 17.488958 z m 73.236662,26.458333 c -3.81,-2.566458 -12.59416,-3.4925 -19.34104,-2.2225 -0.87312,-6.35 -4.41854,-11.879791 -10.87437,-16.853958 l -3.70417,-2.460625 -2.46062,3.704167 c -4.86834,7.355416 -6.19125,19.473333 -0.97896,27.46375 -2.30188,1.243541 -6.82625,2.936875 -12.80584,2.831041 H 0.635 c -2.301875,13.440834 1.5345833,30.903334 11.641667,42.888957 9.816041,11.61521 24.526875,17.51542 43.762083,17.51542 41.645417,0 72.46937,-19.18229 86.88917,-54.027918 5.66208,0.105833 17.88583,0.02646 24.15645,-11.959167 0.39688,-0.661458 1.74625,-3.4925 2.24896,-4.524375 z M 30.585833,46.778333 h -17.4625 v 15.71625 h 17.488959 v -15.71625 z m 20.663959,0 H 33.760833 v 15.71625 h 17.488959 z m 20.663958,0 H 54.424792 v 15.71625 H 71.91375 Z M 51.249792,27.701875 H 33.760833 v 15.901458 h 17.488959 z"
             id="path267"
             style="stroke-width:1" />
        </g>
      </g>
      <text
         xml:space="preserve"
         style="font-style:normal;font-variant:normal;font-weight:normal;font-stretch:normal;font-size:3.17498px;line-height:1;font-family:sans-serif;-inkscape-font-specification:'sans-serif, Normal';font-variant-ligatures:normal;font-variant-caps:normal;font-variant-numeric:normal;font-feature-settings:normal;text-align:start;letter-spacing:0px;word-spacing:0px;writing-mode:lr-tb;text-anchor:start;fill:#000000;fill-opacity:1;stroke:none;stroke-width:0.265;stroke-miterlimit:4;stroke-dasharray:none"
         x="4.9897337"
         y="258.16394"
         id="text96739"><tspan
           sodipodi:role="line"
           x="4.9897337"
           y="258.16394"
           style="font-weight:bold;font-size:2.8222px;stroke-width:0.265;stroke-miterlimit:4;stroke-dasharray:none"
           id="tspan96741">Extract</tspan><tspan
           sodipodi:role="line"
           x="4.9897337"
           y="261.33893"
           style="font-weight:bold;font-size:2.8222px;stroke-width:0.265;stroke-miterlimit:4;stroke-dasharray:none"
           id="tspan96792">transform</tspan><tspan
           sodipodi:role="line"
           x="4.9897337"
           y="264.51389"
           style="font-weight:bold;font-size:2.8222px;stroke-width:0.265;stroke-miterlimit:4;stroke-dasharray:none"
           id="tspan96794">load (ETL)</tspan></text>
    </g>
    <g
       id="g97176"
       transform="translate(42.352318,-27.612698)">
      <g
         id="g1113"
         transform="translate(0,-11.641668)">
        <rect
           style="vector-effect:none;fill:none;fill-opacity:0.162996;stroke:#000000;stroke-width:0.200001;stroke-linecap:butt;stroke-linejoin:miter;stroke-miterlimit:4;stroke-dasharray:none;stroke-dashoffset:0;stroke-opacity:1;paint-order:normal"
           id="rect96350"
           width="32.799999"
           height="16.678999"
           x="3.1806853"
           y="281.25281" />
        <g
           id="g97053"
           transform="translate(-58.211001,14.930817)">
          <g
             id="use96366"
             style="fill:#000000;stroke:none;stroke-width:48.3842"
             transform="matrix(0.02066788,0,0,0.02066788,89.792238,279.47601)">
            <title
               id="title277">Docker</title>
            <path
               d="M 92.577708,62.521042 H 75.08875 v -15.71625 h 17.488958 z m 0,-54.0543753 H 75.08875 V 24.526875 H 92.577708 Z M 113.26812,46.778333 H 95.779167 v 15.71625 H 113.26812 Z M 71.91375,27.701875 H 54.424792 V 43.603333 H 71.91375 Z m 20.663958,0 H 75.08875 v 15.901458 h 17.488958 z m 73.236662,26.458333 c -3.81,-2.566458 -12.59416,-3.4925 -19.34104,-2.2225 -0.87312,-6.35 -4.41854,-11.879791 -10.87437,-16.853958 l -3.70417,-2.460625 -2.46062,3.704167 c -4.86834,7.355416 -6.19125,19.473333 -0.97896,27.46375 -2.30188,1.243541 -6.82625,2.936875 -12.80584,2.831041 H 0.635 c -2.301875,13.440834 1.5345833,30.903334 11.641667,42.888957 9.816041,11.61521 24.526875,17.51542 43.762083,17.51542 41.645417,0 72.46937,-19.18229 86.88917,-54.027918 5.66208,0.105833 17.88583,0.02646 24.15645,-11.959167 0.39688,-0.661458 1.74625,-3.4925 2.24896,-4.524375 z M 30.585833,46.778333 h -17.4625 v 15.71625 h 17.488959 v -15.71625 z m 20.663959,0 H 33.760833 v 15.71625 h 17.488959 z m 20.663958,0 H 54.424792 v 15.71625 H 71.91375 Z M 51.249792,27.701875 H 33.760833 v 15.901458 h 17.488959 z"
               id="path279"
               style="stroke-width:1" />
          </g>
          <g
             id="use96962"
             style="stroke-width:44.1559"
             transform="matrix(0.02353285,0,0,0.02179458,90.409943,271.88154)">
            <g
               id="g311"
               transform="matrix(0.31041564,0,0,0.30871187,-19.078133,185.68946)">
              <g
                 id="g283"
                 style="clip-rule:nonzero;fill-rule:nonzero;stroke:#000000;stroke-width:1.1396;stroke-miterlimit:4" />
              <g
                 id="g309"
                 style="clip-rule:nonzero;fill:none;fill-rule:nonzero;stroke:#ffffff;stroke-width:14.2052;stroke-linecap:round;stroke-linejoin:round;stroke-miterlimit:4">
                <path
                   style="fill:#000000;stroke:#000000;stroke-width:42.6157;stroke-linecap:butt;stroke-linejoin:miter"
                   d="m 323.205,324.227 c 2.833,-23.601 1.984,-27.062 19.563,-23.239 l 4.463,0.392 c 13.517,0.615 31.199,-2.174 41.587,-7 22.362,-10.376 35.622,-27.7 13.572,-23.148 -50.297,10.376 -53.755,-6.655 -53.755,-6.655 C 401.746,185.774 423.948,85.741 404.784,61.255 352.514,-5.534 262.036,26.049 260.522,26.869 l -0.482,0.089 c -9.938,-2.062 -21.06,-3.294 -33.554,-3.496 -22.761,-0.374 -40.032,5.967 -53.133,15.904 0,0 -161.408,-66.498 -153.899,83.628 1.597,31.936 45.777,241.655 98.47,178.31 19.259,-23.163 37.871,-42.748 37.871,-42.748 9.242,6.14 20.307,9.272 31.912,8.147 l 0.897,-0.765 c -0.281,2.876 -0.157,5.689 0.359,9.019 -13.572,15.167 -9.584,17.83 -36.723,23.416 -27.457,5.659 -11.326,15.734 -0.797,18.367 12.768,3.193 42.305,7.716 62.268,-20.224 l -0.795,3.188 c 5.325,4.26 4.965,30.619 5.72,49.452 0.756,18.834 2.017,36.409 5.856,46.771 3.839,10.36 8.369,37.05 44.036,29.406 29.809,-6.388 52.6,-15.582 54.677,-101.107"
                   id="path285" />
                <path
                   style="fill:#000000;fill-opacity:1;stroke:none;stroke-width:14.2052"
                   d="m 402.395,271.23 c -50.302,10.376 -53.76,-6.655 -53.76,-6.655 53.111,-78.808 75.313,-178.843 56.153,-203.326 -52.27,-66.785 -142.752,-35.2 -144.262,-34.38 l -0.486,0.087 c -9.938,-2.063 -21.06,-3.292 -33.56,-3.496 -22.761,-0.373 -40.026,5.967 -53.127,15.902 0,0 -161.411,-66.495 -153.904,83.63 1.597,31.938 45.776,241.657 98.471,178.312 19.26,-23.163 37.869,-42.748 37.869,-42.748 9.243,6.14 20.308,9.272 31.908,8.147 l 0.901,-0.765 c -0.28,2.876 -0.152,5.689 0.361,9.019 -13.575,15.167 -9.586,17.83 -36.723,23.416 -27.459,5.659 -11.328,15.734 -0.796,18.367 12.768,3.193 42.307,7.716 62.266,-20.224 l -0.796,3.188 c 5.319,4.26 9.054,27.711 8.428,48.969 -0.626,21.259 -1.044,35.854 3.147,47.254 4.191,11.4 8.368,37.05 44.042,29.406 29.809,-6.388 45.256,-22.942 47.405,-50.555 1.525,-19.631 4.976,-16.729 5.194,-34.28 l 2.768,-8.309 c 3.192,-26.611 0.507,-35.196 18.872,-31.203 l 4.463,0.392 c 13.517,0.615 31.208,-2.174 41.591,-7 22.358,-10.376 35.618,-27.7 13.573,-23.148 z"
                   id="path287" />
                <path
                   d="m 215.866,286.484 c -1.385,49.516 0.348,99.377 5.193,111.495 4.848,12.118 15.223,35.688 50.9,28.045 29.806,-6.39 40.651,-18.756 45.357,-46.051 3.466,-20.082 10.148,-75.854 11.005,-87.281"
                   id="path289"
                   style="stroke-width:14.2052" />
                <path
                   d="m 173.104,38.256 c 0,0 -161.521,-66.016 -154.012,84.109 1.597,31.938 45.779,241.664 98.473,178.316 19.256,-23.166 36.671,-41.335 36.671,-41.335"
                   id="path291"
                   style="stroke-width:14.2052" />
                <path
                   d="m 260.349,26.207 c -5.591,1.753 89.848,-34.889 144.087,34.417 19.159,24.484 -3.043,124.519 -56.153,203.329"
                   id="path293"
                   style="stroke-width:14.2052" />
                <path
                   style="stroke-width:14.2052;stroke-linejoin:bevel"
                   d="m 348.282,263.953 c 0,0 3.461,17.036 53.764,6.653 22.04,-4.552 8.776,12.774 -13.577,23.155 -18.345,8.514 -59.474,10.696 -60.146,-1.069 -1.729,-30.355 21.647,-21.133 19.96,-28.739 -1.525,-6.85 -11.979,-13.573 -18.894,-30.338 -6.037,-14.633 -82.796,-126.849 21.287,-110.183 3.813,-0.789 -27.146,-99.002 -124.553,-100.599 -97.385,-1.597 -94.19,119.762 -94.19,119.762"
                   id="path295" />
                <path
                   d="m 188.604,274.334 c -13.577,15.166 -9.584,17.829 -36.723,23.417 -27.459,5.66 -11.326,15.733 -0.797,18.365 12.768,3.195 42.307,7.718 62.266,-20.229 6.078,-8.509 -0.036,-22.086 -8.385,-25.547 -4.034,-1.671 -9.428,-3.765 -16.361,3.994 z"
                   id="path297"
                   style="stroke-width:14.2052" />
                <path
                   d="m 187.715,274.069 c -1.368,-8.917 2.93,-19.528 7.536,-31.942 6.922,-18.626 22.893,-37.255 10.117,-96.339 -9.523,-44.029 -73.396,-9.163 -73.436,-3.193 -0.039,5.968 2.889,30.26 -1.067,58.548 -5.162,36.913 23.488,68.132 56.479,64.938"
                   id="path299"
                   style="stroke-width:14.2052" />
                <path
                   style="fill:#ffffff;stroke-width:4.73504;stroke-linecap:butt;stroke-linejoin:miter"
                   d="m 172.517,141.7 c -0.288,2.039 3.733,7.48 8.976,8.207 5.234,0.73 9.714,-3.522 9.998,-5.559 0.284,-2.039 -3.732,-4.285 -8.977,-5.015 -5.237,-0.731 -9.719,0.333 -9.996,2.367 z"
                   id="path301" />
                <path
                   style="fill:#ffffff;stroke-width:2.36752;stroke-linecap:butt;stroke-linejoin:miter"
                   d="m 331.941,137.543 c 0.284,2.039 -3.732,7.48 -8.976,8.207 -5.238,0.73 -9.718,-3.522 -10.005,-5.559 -0.277,-2.039 3.74,-4.285 8.979,-5.015 5.239,-0.73 9.718,0.333 10.002,2.368 z"
                   id="path303" />
                <path
                   d="m 350.676,123.432 c 0.863,15.994 -3.445,26.888 -3.988,43.914 -0.804,24.748 11.799,53.074 -7.191,81.435"
                   id="path305"
                   style="stroke-width:14.2052" />
                <path
                   style="stroke-width:3.4188"
                   d="M 0,60.232"
                   id="path307" />
              </g>
            </g>
          </g>
        </g>
        <text
           xml:space="preserve"
           style="font-style:normal;font-variant:normal;font-weight:normal;font-stretch:normal;font-size:3.17498px;line-height:1;font-family:sans-serif;-inkscape-font-specification:'sans-serif, Normal';font-variant-ligatures:normal;font-variant-caps:normal;font-variant-numeric:normal;font-feature-settings:normal;text-align:start;letter-spacing:0px;word-spacing:0px;writing-mode:lr-tb;text-anchor:start;fill:#000000;fill-opacity:1;stroke:none;stroke-width:0.265;stroke-miterlimit:4;stroke-dasharray:none"
           x="5.008122"
           y="284.29904"
           id="text97039"><tspan
             sodipodi:role="line"
             id="tspan97037"
             x="5.008122"
             y="284.29904"
             style="font-weight:bold;font-size:2.8222px;stroke-width:0.265;stroke-miterlimit:4;stroke-dasharray:none">Data warehouse</tspan><tspan
             sodipodi:role="line"
             x="5.008122"
             y="287.47403"
             style="font-size:2.46942px;stroke-width:0.265;stroke-miterlimit:4;stroke-dasharray:none"
             id="tspan97041">facts</tspan><tspan
             sodipodi:role="line"
             x="5.008122"
             y="290.64899"
             style="font-size:2.46942px;stroke-width:0.265;stroke-miterlimit:4;stroke-dasharray:none"
             id="tspan97154">dimensions</tspan><tspan
             sodipodi:role="line"
             x="5.008122"
             y="293.82397"
             style="font-size:2.46942px;stroke-width:0.265;stroke-miterlimit:4;stroke-dasharray:none"
             id="tspan97043">views</tspan><tspan
             sodipodi:role="line"
             x="5.008122"
             y="296.99896"
             style="font-size:2.46942px;stroke-width:0.265;stroke-miterlimit:4;stroke-dasharray:none"
             id="tspan97047">simulation runs</tspan></text>
      </g>
    </g>
    <rect
       style="vector-effect:none;fill:none;fill-opacity:0.162996;stroke:#000000;stroke-width:0.2;stroke-linecap:butt;stroke-linejoin:miter;stroke-miterlimit:4;stroke-dasharray:none;stroke-dashoffset:0;stroke-opacity:1;paint-order:normal"
       id="rect8523"
       width="29.799999"
       height="7.1540003"
       x="2.0999999"
       y="230.81273" />
    <text
       xml:space="preserve"
       style="font-style:normal;font-variant:normal;font-weight:normal;font-stretch:normal;font-size:3.175px;line-height:1;font-family:sans-serif;-inkscape-font-specification:'sans-serif, Normal';font-variant-ligatures:normal;font-variant-caps:normal;font-variant-numeric:normal;font-feature-settings:normal;text-align:center;letter-spacing:0px;word-spacing:0px;writing-mode:lr-tb;text-anchor:middle;fill:#000000;fill-opacity:1;stroke:none;stroke-width:0.264583"
       x="4.0307188"
       y="233.85695"
       id="text8527"><tspan
         sodipodi:role="line"
         id="tspan8533"
         x="4.0307188"
         y="233.85695"
         style="font-weight:bold;font-size:2.82222px;text-align:start;text-anchor:start">Staging</tspan><tspan
         sodipodi:role="line"
         id="tspan8535"
         x="4.0307188"
         y="237.03195"
         style="font-size:2.46944px;text-align:start;text-anchor:start">*.csv flat files</tspan></text>
    <g
       id="use97323"
       style="fill:#000000;stroke:none;stroke-width:38.7048"
       transform="matrix(0.02583661,0,0,0.02583661,27.49982,234.00406)">
      <title
         id="title226">Folder</title>
      <path
         d="M 122.76667,33.866667 H 71.966667 L 55.033333,16.933333 H 12.7 c -7.0141042,0 -12.7,5.685896 -12.7,12.7 v 76.199997 c 0,7.01411 5.6858958,12.7 12.7,12.7 h 110.06667 c 7.0141,0 12.7,-5.68589 12.7,-12.7 V 46.566667 c 0,-7.014105 -5.6859,-12.7 -12.7,-12.7 z"
         id="path228"
         style="stroke-width:1" />
    </g>
    <g
       id="g97408"
       transform="translate(1.0829992,-17.538641)">
      <g
         id="g1101"
         transform="translate(0,-9.5250003)">
        <rect
           style="vector-effect:none;fill:none;fill-opacity:0.162996;stroke:#000000;stroke-width:0.2;stroke-linecap:butt;stroke-linejoin:miter;stroke-miterlimit:4;stroke-dasharray:none;stroke-dashoffset:0;stroke-opacity:1;paint-order:normal"
           id="rect97114"
           width="32.799999"
           height="10.329"
           x="44.450001"
           y="257.38864" />
        <text
           xml:space="preserve"
           id="text97118"
           style="font-style:normal;font-variant:normal;font-weight:normal;font-stretch:normal;font-size:3.175px;line-height:1;font-family:sans-serif;-inkscape-font-specification:'sans-serif, Normal';font-variant-ligatures:normal;font-variant-caps:normal;font-variant-numeric:normal;font-feature-settings:normal;text-align:start;letter-spacing:0px;word-spacing:0px;writing-mode:lr-tb;white-space:pre;shape-inside:url(#rect97120);fill:#000000;fill-opacity:1;stroke:none;"
           transform="translate(-2.5938721,11.820921)"><tspan
             x="48.810547"
             y="248.61147"><tspan
               style="font-weight:bold;font-size:2.82222px">Backend server</tspan><tspan>
</tspan></tspan><tspan
             x="48.810547"
             y="251.78648"><tspan
               style="font-size:2.46944px">web server
</tspan></tspan><tspan
             x="48.810547"
             y="254.96148"><tspan
               style="font-size:2.46944px">simulator</tspan></tspan></text>
        <g
           id="use97392"
           style="fill:#000000;stroke:none;stroke-width:2341.03"
           transform="matrix(0.02066788,0,0,0.02066788,72.850629,264.19218)">
          <title
             id="title315">Docker</title>
          <path
             d="M 92.577708,62.521042 H 75.08875 v -15.71625 h 17.488958 z m 0,-54.0543753 H 75.08875 V 24.526875 H 92.577708 Z M 113.26812,46.778333 H 95.779167 v 15.71625 H 113.26812 Z M 71.91375,27.701875 H 54.424792 V 43.603333 H 71.91375 Z m 20.663958,0 H 75.08875 v 15.901458 h 17.488958 z m 73.236662,26.458333 c -3.81,-2.566458 -12.59416,-3.4925 -19.34104,-2.2225 -0.87312,-6.35 -4.41854,-11.879791 -10.87437,-16.853958 l -3.70417,-2.460625 -2.46062,3.704167 c -4.86834,7.355416 -6.19125,19.473333 -0.97896,27.46375 -2.30188,1.243541 -6.82625,2.936875 -12.80584,2.831041 H 0.635 c -2.301875,13.440834 1.5345833,30.903334 11.641667,42.888957 9.816041,11.61521 24.526875,17.51542 43.762083,17.51542 41.645417,0 72.46937,-19.18229 86.88917,-54.027918 5.66208,0.105833 17.88583,0.02646 24.15645,-11.959167 0.39688,-0.661458 1.74625,-3.4925 2.24896,-4.524375 z M 30.585833,46.778333 h -17.4625 v 15.71625 h 17.488959 v -15.71625 z m 20.663959,0 H 33.760833 v 15.71625 h 17.488959 z m 20.663958,0 H 54.424792 v 15.71625 H 71.91375 Z M 51.249792,27.701875 H 33.760833 v 15.901458 h 17.488959 z"
             id="path317"
             style="stroke-width:1" />
        </g>
      </g>
    </g>
    <path
       style="opacity:1;vector-effect:none;fill:none;fill-opacity:1;stroke:#000000;stroke-width:0.5;stroke-linecap:butt;stroke-linejoin:miter;stroke-miterlimit:2;stroke-dasharray:none;stroke-dashoffset:0;stroke-opacity:1;marker-end:url(#Arrow1Lend)"
       d="m 7.8451709,229.07639 v 0.65778"
       id="path97410" />
    <path
       style="opacity:1;vector-effect:none;fill:none;fill-opacity:1;stroke:#000000;stroke-width:0.500002;stroke-linecap:butt;stroke-linejoin:miter;stroke-miterlimit:2;stroke-dasharray:none;stroke-dashoffset:0;stroke-opacity:1;marker-end:url(#Arrow1Lend-4)"
       d="m 36.946997,246.74316 h 5.491918"
       id="path97410-5" />
    <path
       style="opacity:1;vector-effect:none;fill:none;fill-opacity:1;stroke:#000000;stroke-width:0.500001;stroke-linecap:butt;stroke-linejoin:miter;stroke-miterlimit:2;stroke-dasharray:none;stroke-dashoffset:0;stroke-opacity:1;marker-end:url(#Arrow1Lend-4-5)"
       d="m 72.588173,229.96512 v -0.61956"
       id="path97410-5-9" />
    <rect
       style="opacity:1;vector-effect:none;fill:none;fill-opacity:0.162996;stroke:#000000;stroke-width:0.4;stroke-linecap:butt;stroke-linejoin:miter;stroke-miterlimit:4;stroke-dasharray:none;stroke-dashoffset:0;stroke-opacity:1;paint-order:normal"
       id="rect98601"
       width="80.033333"
       height="30.546743"
       x="0.20000026"
       y="229.26674" />
    <path
       style="opacity:1;vector-effect:none;fill:none;fill-opacity:1;stroke:#000000;stroke-width:0.500001;stroke-linecap:butt;stroke-linejoin:miter;stroke-miterlimit:4;stroke-dasharray:none;stroke-dashoffset:0;stroke-opacity:1;marker-end:url(#marker99043)"
       d="m 7.8451726,240.13908 v 0.0535"
       id="path98867" />
    <path
       style="opacity:1;vector-effect:none;fill:none;fill-opacity:1;stroke:#000000;stroke-width:0.499998;stroke-linecap:butt;stroke-linejoin:miter;stroke-miterlimit:4;stroke-dasharray:none;stroke-dashoffset:0;stroke-opacity:1;marker-start:url(#marker99073-8);marker-end:url(#marker99043-8)"
       d="m 72.588167,240.18096 v 1.82024"
       id="path98867-2" />
    <rect
       style="vector-effect:none;fill:#000000;fill-opacity:0.162996;stroke:#000000;stroke-width:0.2;stroke-linecap:butt;stroke-linejoin:miter;stroke-miterlimit:4;stroke-dasharray:none;stroke-dashoffset:0;stroke-opacity:1;paint-order:normal"
       id="rect4768"
       width="45.496433"
       height="7.2889996"
       x="0.10254496"
       y="220.89998" />
    <text
       xml:space="preserve"
       style="font-style:normal;font-variant:normal;font-weight:normal;font-stretch:normal;font-size:3.25581px;line-height:0.95;font-family:sans-serif;-inkscape-font-specification:'sans-serif, Normal';font-variant-ligatures:normal;font-variant-caps:normal;font-variant-numeric:normal;font-feature-settings:normal;text-align:center;letter-spacing:0px;word-spacing:0px;writing-mode:lr-tb;text-anchor:middle;fill:#000000;fill-opacity:1;stroke:none;stroke-width:0.264583"
       x="1.9407647"
       y="229.90013"
       id="text4772"
       transform="scale(1.0254507,0.97518096)"><tspan
         sodipodi:role="line"
         id="tspan8480"
         x="1.9407647"
         y="229.90013"
         style="font-weight:bold;font-size:2.89405px;text-align:start;text-anchor:start;stroke-width:0.264583">Wi-Fi monitoring system</tspan><tspan
         sodipodi:role="line"
         id="tspan8482"
         x="1.9407647"
         y="232.99315"
         style="font-size:2.53229px;text-align:start;text-anchor:start;stroke-width:0.264583">raw data</tspan></text>
    <g
       id="use96336-3"
       style="fill:#000000;stroke:none;stroke-width:39.5752"
       transform="matrix(0.02334599,0,0,0.02734919,42.036,224.31544)">
      <title
         id="title237">Server</title>
      <path
         d="M 127,42.333333 H 8.4666667 C 3.7906854,42.333333 0,38.542648 0,33.866667 V 16.933333 C 0,12.257352 3.7906854,8.4666667 8.4666667,8.4666667 H 127 c 4.67598,0 8.46667,3.7906853 8.46667,8.4666663 v 16.933334 c 0,4.675981 -3.79069,8.466666 -8.46667,8.466666 z M 114.3,19.05 c -3.50705,0 -6.35,2.842948 -6.35,6.35 0,3.507052 2.84295,6.35 6.35,6.35 3.50705,0 6.35,-2.842948 6.35,-6.35 0,-3.507052 -2.84295,-6.35 -6.35,-6.35 z m -16.933333,0 c -3.507052,0 -6.35,2.842948 -6.35,6.35 0,3.507052 2.842948,6.35 6.35,6.35 3.507053,0 6.350003,-2.842948 6.350003,-6.35 0,-3.507052 -2.84295,-6.35 -6.350003,-6.35 z M 127,84.666667 H 8.4666667 C 3.7906854,84.666667 0,80.875981 0,76.2 V 59.266667 C 0,54.590685 3.7906854,50.8 8.4666667,50.8 H 127 c 4.67598,0 8.46667,3.790685 8.46667,8.466667 V 76.2 c 0,4.675981 -3.79069,8.466667 -8.46667,8.466667 z M 114.3,61.383333 c -3.50705,0 -6.35,2.842948 -6.35,6.35 0,3.507052 2.84295,6.35 6.35,6.35 3.50705,0 6.35,-2.842948 6.35,-6.35 0,-3.507052 -2.84295,-6.35 -6.35,-6.35 z m -16.933333,0 c -3.507052,0 -6.35,2.842948 -6.35,6.35 0,3.507052 2.842948,6.35 6.35,6.35 3.507053,0 6.350003,-2.842948 6.350003,-6.35 0,-3.507052 -2.84295,-6.35 -6.350003,-6.35 z M 127,127 H 8.4666667 C 3.7906854,127 0,123.20931 0,118.53333 V 101.6 C 0,96.924019 3.7906854,93.133333 8.4666667,93.133333 H 127 c 4.67598,0 8.46667,3.790686 8.46667,8.466667 v 16.93333 C 135.46667,123.20931 131.67598,127 127,127 Z m -12.7,-23.28333 c -3.50705,0 -6.35,2.84294 -6.35,6.35 0,3.50705 2.84295,6.35 6.35,6.35 3.50705,0 6.35,-2.84295 6.35,-6.35 0,-3.50706 -2.84295,-6.35 -6.35,-6.35 z m -16.933333,0 c -3.507052,0 -6.35,2.84294 -6.35,6.35 0,3.50705 2.842948,6.35 6.35,6.35 3.507053,0 6.350003,-2.84295 6.350003,-6.35 0,-3.50706 -2.84295,-6.35 -6.350003,-6.35 z"
         id="path239"
         style="stroke-width:1" />
    </g>
    <g
       id="g1242"
       transform="translate(-0.20041504)">
      <rect
         style="vector-effect:none;fill:none;fill-opacity:0.162996;stroke:#000000;stroke-width:0.2;stroke-linecap:butt;stroke-linejoin:miter;stroke-miterlimit:4;stroke-dasharray:none;stroke-dashoffset:0;stroke-opacity:1;paint-order:normal"
         id="rect97116"
         width="31.733234"
         height="7.289"
         x="48.800415"
         y="220.89999" />
      <text
         xml:space="preserve"
         id="text97124"
         style="font-style:normal;font-variant:normal;font-weight:normal;font-stretch:normal;font-size:2.82222px;line-height:1;font-family:sans-serif;-inkscape-font-specification:'sans-serif, Normal';font-variant-ligatures:normal;font-variant-caps:normal;font-variant-numeric:normal;font-feature-settings:normal;text-align:start;letter-spacing:0px;word-spacing:0px;writing-mode:lr-tb;white-space:pre;shape-inside:url(#rect97126);fill:#000000;fill-opacity:1;stroke:none;stroke-width:0.996896;"
         transform="matrix(1.0062379,0,0,1,-13.437057,-52.562207)"><tspan
           x="63.5"
           y="276.91962"><tspan
             style="font-weight:bold;font-size:2.82222px;stroke-width:0.996896">API 
</tspan></tspan><tspan
           x="63.5"
           y="279.74185"><tspan
             style="font-weight:bold;font-size:2.82222px;stroke-width:0.996896">Analytics Services</tspan></tspan></text>
      <g
         id="use96636"
         style="fill:#000000;stroke:none;stroke-width:2.11316"
         transform="matrix(0.47322513,0,0,0.47322513,76.131819,221.04623)">
        <title
           id="title321">web-browser-symbolic</title>
        <path
           d="M 4.2325396,2.5646062 V 8.0562979 L 2.9924375,6.8458292 2.2838833,8.2925708 C 2.1103167,8.6838896 1.2080875,8.3693 1.4644687,7.8459542 L 2.1656146,6.3439146 H 0.60086875 Z"
           id="path323"
           style="stroke-width:1" />
        <path
           d="M 3.7861875,0.56303333 C 1.7618604,0.80645 0.30559375,2.6569458 0.56223958,4.6796854 0.63156042,5.2271083 0.71755,5.4107292 0.71755,5.4107292 L 1.6036396,4.5473937 C 1.4284854,3.0905979 2.4614187,1.7795875 3.9182146,1.6046979 5.3750104,1.4298083 6.6860208,2.4624771 6.8609104,3.9192729 7.0268042,5.299075 6.1248396,6.5778062 4.7611771,6.8455646 l 0.016404,1.0580687 c 0,0 0.2754313,-0.056092 0.3299355,-0.069321 C 6.9146208,7.3932521 8.1264125,5.6507062 7.9023104,3.7869812 7.6588937,1.7626542 5.81025,0.31961667 3.7856583,0.56303333 Z"
           id="path325"
           style="stroke-width:1" />
        <path
           opacity="0.3"
           d="M 2.1759333,4.1354375 V 4.0266937 l -0.104775,0.00979 c 0.00873,-0.069321 0.017463,-0.1383771 0.026194,-0.2076979 h -0.061119 l -0.061119,0.07911 -0.061119,0.029633 L 1.8264187,3.8883167 1.8176875,3.7795729 1.83515,3.660775 1.9663833,3.5618208 h 0.104775 l 0.017463,-0.059531 0.1312334,0.029633 0.096308,0.1187979 0.017463,-0.1979083 0.1661583,-0.1383771 0.061119,-0.1484312 0.1225021,-0.049477 0.06985,-0.098954 0.157427,-0.029898 0.078846,-0.1185333 c -0.078581,0 -0.1574271,0 -0.2360083,0 l 0.1486958,-0.069321 h 0.104775 l 0.1486958,-0.049477 0.017463,-0.059267 -0.052388,-0.049477 -0.061119,-0.019844 0.017463,-0.059267 -0.043656,-0.0889 -0.1050396,0.039423 0.017462,-0.07911 -0.1225021,-0.069321 -0.096044,0.1680105 0.00873,0.059531 -0.096044,0.039687 L 2.5786292,2.7603979 2.5524354,2.6416 2.3862771,2.5722792 2.3600831,2.4833792 2.578629,2.3547917 2.674937,2.2658917 2.683667,2.1571479 2.631279,2.1275149 2.561429,2.1174609 2.517773,2.2262047 c 0,0 -0.073025,0.014288 -0.09181,0.01905 -0.2399771,0.2211916 -0.7252229,0.6985 -0.8379354,1.5999354 0.00423,0.020902 0.081756,0.1420812 0.081756,0.1420812 l 0.1836208,0.1087438 0.1836209,0.049477 z M 4.1343792,1.870075 3.9071021,1.7809104 3.6449,1.8105437 l -0.3235854,0.0889 -0.061119,0.059531 0.2010834,0.1383771 v 0.07911 l -0.078581,0.07911 0.1050396,0.2079625 0.06985,-0.039687 0.087577,-0.1383771 C 3.7801021,2.2436667 3.9012812,2.1963062 4.0296042,2.1370396 L 4.1346437,1.870075 Z M 5.4723771,2.05105 5.2739396,2.100527 5.1583167,2.183077 v 0.066146 l -0.1984375,0.1322917 0.049477,0.1817687 0.115623,-0.08255 0.066146,0.08255 0.08255,0.049477 0.049477,-0.1486958 -0.033073,-0.08255 0.033073,-0.049477 0.1156229,-0.099219 h 0.049477 l -0.049477,0.115623 v 0.099219 c 0.047096,-0.0127 0.084138,-0.026988 0.1322917,-0.033073 L 5.438775,2.5138063 v 0.066146 L 5.2734104,2.695575 5.1247146,2.6625021 v -0.08255 l -0.066146,0.033073 0.033073,0.08255 h -0.115623 l -0.066146,0.1156229 -0.08255,0.08255 -0.049477,0.016404 v 0.099219 l 0.016404,0.08255 h -0.016404 v 0.2809875 l 0.033073,-0.016404 0.049477,-0.115623 0.099219,-0.066146 0.016404,-0.049477 0.1486959,-0.033073 0.08255,0.099219 0.099219,0.049477 L 5.2570062,3.3401 5.3395562,3.3236958 5.3726292,3.2080729 5.2734104,3.09245 h 0.033073 l 0.115623,0.08255 0.016404,0.1156229 0.08255,0.1156229 0.033073,-0.1653646 0.049477,-0.016404 c 0.0508,0.052652 0.089429,0.1225021 0.1322917,0.1817687 H 5.8845979 L 5.9838167,3.4723917 5.851525,3.6046833 H 5.7192333 L 5.5374646,3.5552062 H 5.4382458 L 5.3721,3.6377562 5.1903313,3.4393187 5.0580396,3.4062458 l -0.1984375,0.033073 -0.08255,0.049477 v 1.2729104 l 0.016404,0.016404 0.1322916,-0.08255 0.049477,0.049477 h 0.1486958 l 0.066146,0.08255 -0.049477,0.1653646 0.099219,0.099219 V 5.2906083 L 5.3059542,5.4229 5.2564771,5.5551917 c -0.00476,0.08546 0,0.1624541 0,0.2479145 0.042069,0.1158875 0.075935,0.2304521 0.1156229,0.3471334 l 0.033073,0.1817687 v 0.099219 H 5.471319 L 5.5869417,6.3650812 H 5.7192333 L 5.9176708,6.1335708 5.9012667,6.0510208 6.0335583,5.9353979 5.9343396,5.8361792 6.0499625,5.7369604 6.1655854,5.6708146 6.2150625,5.6046687 6.1819896,5.4723771 V 5.1583167 L 6.2812083,4.9598792 6.3804271,4.8275875 6.5127188,4.5299312 v -0.08255 c -0.061648,0.00767 -0.1214438,0.012171 -0.1817688,0.016404 -0.0381,0.00265 -0.076465,0 -0.1156229,0 C 6.149975,4.3264667 6.0999688,4.194175 6.0499625,4.0505062 l -0.08255,-0.099219 -0.049477,-0.1653646 0.033073,-0.033073 0.115623,0.1322917 0.1322916,0.2976562 0.08255,0.08255 -0.033073,0.1156229 0.08255,0.08255 0.1322917,-0.1322916 0.1653646,-0.115623 0.08255,-0.099219 V 4.0007646 c -0.020638,-0.038629 -0.02884,-0.076994 -0.049477,-0.1156229 l -0.08255,0.099219 -0.066146,-0.08255 -0.099219,-0.066146 v -0.148696 l 0.1156229,0.115623 0.1156229,-0.016404 c 0.05371,0.048948 0.1016,0.1098021 0.1486958,0.1653646 l 0.08255,-0.099219 c 0,-0.09234 -0.1055687,-0.53975 -0.3307291,-0.9257771 C 6.3203667,2.5405292 5.9338104,2.1825479 5.9338104,2.1825479 L 5.9007375,2.232025 5.7851146,2.3476479 5.6528229,2.2153562 H 5.7851146 L 5.8512604,2.1492104 5.6033458,2.0997333 5.4710542,2.0502562 Z"
           id="path327"
           style="stroke-width:1" />
      </g>
    </g>
  </g>
</svg>
